<?xml version="1.0" encoding="utf-8" standalone="no"?>
<!DOCTYPE svg PUBLIC "-//W3C//DTD SVG 1.1//EN"
  "http://www.w3.org/Graphics/SVG/1.1/DTD/svg11.dtd">
<svg height="360pt" version="1.1" viewBox="0 0 360 360" width="360pt" xmlns="http://www.w3.org/2000/svg" xmlns:xlink="http://www.w3.org/1999/xlink">
 <metadata>
  <rdf:RDF xmlns:cc="http://creativecommons.org/ns#" xmlns:dc="http://purl.org/dc/elements/1.1/" xmlns:rdf="http://www.w3.org/1999/02/22-rdf-syntax-ns#">
   <cc:Work>
    <dc:type rdf:resource="http://purl.org/dc/dcmitype/StillImage"/>
    <dc:date>2021-12-06T21:44:13.023253</dc:date>
    <dc:format>image/svg+xml</dc:format>
    <dc:creator>
     <cc:Agent>
      <dc:title>Matplotlib v3.4.3, https://matplotlib.org/</dc:title>
     </cc:Agent>
    </dc:creator>
   </cc:Work>
  </rdf:RDF>
 </metadata>
 <defs>
  <style type="text/css">*{stroke-linecap:butt;stroke-linejoin:round;}</style>
 </defs>
 <g id="figure_1">
  <g id="patch_1">
   <path d="M 0 360 
L 360 360 
L 360 0 
L 0 0 
z
" style="fill:#ffffff;"/>
  </g>
  <g id="axes_1">
   <g id="patch_2">
    <path d="M 45.9 320.4 
L 323.1 320.4 
L 323.1 43.2 
L 45.9 43.2 
z
" style="fill:#ffffff;"/>
   </g>
   <g id="matplotlib.axis_1">
    <g id="xtick_1">
     <g id="line2d_1">
      <path clip-path="url(#pee79bc5a3f)" d="M 69.513333 320.4 
L 69.513333 43.2 
" style="fill:none;stroke:#b0b0b0;stroke-linecap:square;stroke-width:0.8;"/>
     </g>
     <g id="line2d_2">
      <defs>
       <path d="M 0 0 
L 0 3.5 
" id="mdd49741513" style="stroke:#000000;stroke-width:0.8;"/>
      </defs>
      <g>
       <use style="stroke:#000000;stroke-width:0.8;" x="69.513333" xlink:href="#mdd49741513" y="320.4"/>
      </g>
     </g>
     <g id="text_1">
      <!-- 18 -->
      <g transform="translate(63.150833 334.998438)scale(0.1 -0.1)">
       <defs>
        <path d="M 794 531 
L 1825 531 
L 1825 4091 
L 703 3866 
L 703 4441 
L 1819 4666 
L 2450 4666 
L 2450 531 
L 3481 531 
L 3481 0 
L 794 0 
L 794 531 
z
" id="DejaVuSans-31" transform="scale(0.015625)"/>
        <path d="M 2034 2216 
Q 1584 2216 1326 1975 
Q 1069 1734 1069 1313 
Q 1069 891 1326 650 
Q 1584 409 2034 409 
Q 2484 409 2743 651 
Q 3003 894 3003 1313 
Q 3003 1734 2745 1975 
Q 2488 2216 2034 2216 
z
M 1403 2484 
Q 997 2584 770 2862 
Q 544 3141 544 3541 
Q 544 4100 942 4425 
Q 1341 4750 2034 4750 
Q 2731 4750 3128 4425 
Q 3525 4100 3525 3541 
Q 3525 3141 3298 2862 
Q 3072 2584 2669 2484 
Q 3125 2378 3379 2068 
Q 3634 1759 3634 1313 
Q 3634 634 3220 271 
Q 2806 -91 2034 -91 
Q 1263 -91 848 271 
Q 434 634 434 1313 
Q 434 1759 690 2068 
Q 947 2378 1403 2484 
z
M 1172 3481 
Q 1172 3119 1398 2916 
Q 1625 2713 2034 2713 
Q 2441 2713 2670 2916 
Q 2900 3119 2900 3481 
Q 2900 3844 2670 4047 
Q 2441 4250 2034 4250 
Q 1625 4250 1398 4047 
Q 1172 3844 1172 3481 
z
" id="DejaVuSans-38" transform="scale(0.015625)"/>
       </defs>
       <use xlink:href="#DejaVuSans-31"/>
       <use x="63.623047" xlink:href="#DejaVuSans-38"/>
      </g>
     </g>
    </g>
    <g id="xtick_2">
     <g id="line2d_3">
      <path clip-path="url(#pee79bc5a3f)" d="M 127.006667 320.4 
L 127.006667 43.2 
" style="fill:none;stroke:#b0b0b0;stroke-linecap:square;stroke-width:0.8;"/>
     </g>
     <g id="line2d_4">
      <g>
       <use style="stroke:#000000;stroke-width:0.8;" x="127.006667" xlink:href="#mdd49741513" y="320.4"/>
      </g>
     </g>
     <g id="text_2">
      <!-- 19 -->
      <g transform="translate(120.644167 334.998438)scale(0.1 -0.1)">
       <defs>
        <path d="M 703 97 
L 703 672 
Q 941 559 1184 500 
Q 1428 441 1663 441 
Q 2288 441 2617 861 
Q 2947 1281 2994 2138 
Q 2813 1869 2534 1725 
Q 2256 1581 1919 1581 
Q 1219 1581 811 2004 
Q 403 2428 403 3163 
Q 403 3881 828 4315 
Q 1253 4750 1959 4750 
Q 2769 4750 3195 4129 
Q 3622 3509 3622 2328 
Q 3622 1225 3098 567 
Q 2575 -91 1691 -91 
Q 1453 -91 1209 -44 
Q 966 3 703 97 
z
M 1959 2075 
Q 2384 2075 2632 2365 
Q 2881 2656 2881 3163 
Q 2881 3666 2632 3958 
Q 2384 4250 1959 4250 
Q 1534 4250 1286 3958 
Q 1038 3666 1038 3163 
Q 1038 2656 1286 2365 
Q 1534 2075 1959 2075 
z
" id="DejaVuSans-39" transform="scale(0.015625)"/>
       </defs>
       <use xlink:href="#DejaVuSans-31"/>
       <use x="63.623047" xlink:href="#DejaVuSans-39"/>
      </g>
     </g>
    </g>
    <g id="xtick_3">
     <g id="line2d_5">
      <path clip-path="url(#pee79bc5a3f)" d="M 184.5 320.4 
L 184.5 43.2 
" style="fill:none;stroke:#b0b0b0;stroke-linecap:square;stroke-width:0.8;"/>
     </g>
     <g id="line2d_6">
      <g>
       <use style="stroke:#000000;stroke-width:0.8;" x="184.5" xlink:href="#mdd49741513" y="320.4"/>
      </g>
     </g>
     <g id="text_3">
      <!-- 20 -->
      <g transform="translate(178.1375 334.998438)scale(0.1 -0.1)">
       <defs>
        <path d="M 1228 531 
L 3431 531 
L 3431 0 
L 469 0 
L 469 531 
Q 828 903 1448 1529 
Q 2069 2156 2228 2338 
Q 2531 2678 2651 2914 
Q 2772 3150 2772 3378 
Q 2772 3750 2511 3984 
Q 2250 4219 1831 4219 
Q 1534 4219 1204 4116 
Q 875 4013 500 3803 
L 500 4441 
Q 881 4594 1212 4672 
Q 1544 4750 1819 4750 
Q 2544 4750 2975 4387 
Q 3406 4025 3406 3419 
Q 3406 3131 3298 2873 
Q 3191 2616 2906 2266 
Q 2828 2175 2409 1742 
Q 1991 1309 1228 531 
z
" id="DejaVuSans-32" transform="scale(0.015625)"/>
        <path d="M 2034 4250 
Q 1547 4250 1301 3770 
Q 1056 3291 1056 2328 
Q 1056 1369 1301 889 
Q 1547 409 2034 409 
Q 2525 409 2770 889 
Q 3016 1369 3016 2328 
Q 3016 3291 2770 3770 
Q 2525 4250 2034 4250 
z
M 2034 4750 
Q 2819 4750 3233 4129 
Q 3647 3509 3647 2328 
Q 3647 1150 3233 529 
Q 2819 -91 2034 -91 
Q 1250 -91 836 529 
Q 422 1150 422 2328 
Q 422 3509 836 4129 
Q 1250 4750 2034 4750 
z
" id="DejaVuSans-30" transform="scale(0.015625)"/>
       </defs>
       <use xlink:href="#DejaVuSans-32"/>
       <use x="63.623047" xlink:href="#DejaVuSans-30"/>
      </g>
     </g>
    </g>
    <g id="xtick_4">
     <g id="line2d_7">
      <path clip-path="url(#pee79bc5a3f)" d="M 241.993333 320.4 
L 241.993333 43.2 
" style="fill:none;stroke:#b0b0b0;stroke-linecap:square;stroke-width:0.8;"/>
     </g>
     <g id="line2d_8">
      <g>
       <use style="stroke:#000000;stroke-width:0.8;" x="241.993333" xlink:href="#mdd49741513" y="320.4"/>
      </g>
     </g>
     <g id="text_4">
      <!-- 21 -->
      <g transform="translate(235.630833 334.998438)scale(0.1 -0.1)">
       <use xlink:href="#DejaVuSans-32"/>
       <use x="63.623047" xlink:href="#DejaVuSans-31"/>
      </g>
     </g>
    </g>
    <g id="xtick_5">
     <g id="line2d_9">
      <path clip-path="url(#pee79bc5a3f)" d="M 299.486667 320.4 
L 299.486667 43.2 
" style="fill:none;stroke:#b0b0b0;stroke-linecap:square;stroke-width:0.8;"/>
     </g>
     <g id="line2d_10">
      <g>
       <use style="stroke:#000000;stroke-width:0.8;" x="299.486667" xlink:href="#mdd49741513" y="320.4"/>
      </g>
     </g>
     <g id="text_5">
      <!-- 22 -->
      <g transform="translate(293.124167 334.998438)scale(0.1 -0.1)">
       <use xlink:href="#DejaVuSans-32"/>
       <use x="63.623047" xlink:href="#DejaVuSans-32"/>
      </g>
     </g>
    </g>
   </g>
   <g id="matplotlib.axis_2">
    <g id="ytick_1">
     <g id="line2d_11">
      <path clip-path="url(#pee79bc5a3f)" d="M 45.9 288.881333 
L 323.1 288.881333 
" style="fill:none;stroke:#b0b0b0;stroke-linecap:square;stroke-width:0.8;"/>
     </g>
     <g id="line2d_12">
      <defs>
       <path d="M 0 0 
L -3.5 0 
" id="m10f5f09f6a" style="stroke:#000000;stroke-width:0.8;"/>
      </defs>
      <g>
       <use style="stroke:#000000;stroke-width:0.8;" x="45.9" xlink:href="#m10f5f09f6a" y="288.881333"/>
      </g>
     </g>
     <g id="text_6">
      <!-- 48 -->
      <g transform="translate(26.175 292.680552)scale(0.1 -0.1)">
       <defs>
        <path d="M 2419 4116 
L 825 1625 
L 2419 1625 
L 2419 4116 
z
M 2253 4666 
L 3047 4666 
L 3047 1625 
L 3713 1625 
L 3713 1100 
L 3047 1100 
L 3047 0 
L 2419 0 
L 2419 1100 
L 313 1100 
L 313 1709 
L 2253 4666 
z
" id="DejaVuSans-34" transform="scale(0.015625)"/>
       </defs>
       <use xlink:href="#DejaVuSans-34"/>
       <use x="63.623047" xlink:href="#DejaVuSans-38"/>
      </g>
     </g>
    </g>
    <g id="ytick_2">
     <g id="line2d_13">
      <path clip-path="url(#pee79bc5a3f)" d="M 45.9 231.388 
L 323.1 231.388 
" style="fill:none;stroke:#b0b0b0;stroke-linecap:square;stroke-width:0.8;"/>
     </g>
     <g id="line2d_14">
      <g>
       <use style="stroke:#000000;stroke-width:0.8;" x="45.9" xlink:href="#m10f5f09f6a" y="231.388"/>
      </g>
     </g>
     <g id="text_7">
      <!-- 49 -->
      <g transform="translate(26.175 235.187219)scale(0.1 -0.1)">
       <use xlink:href="#DejaVuSans-34"/>
       <use x="63.623047" xlink:href="#DejaVuSans-39"/>
      </g>
     </g>
    </g>
    <g id="ytick_3">
     <g id="line2d_15">
      <path clip-path="url(#pee79bc5a3f)" d="M 45.9 173.894667 
L 323.1 173.894667 
" style="fill:none;stroke:#b0b0b0;stroke-linecap:square;stroke-width:0.8;"/>
     </g>
     <g id="line2d_16">
      <g>
       <use style="stroke:#000000;stroke-width:0.8;" x="45.9" xlink:href="#m10f5f09f6a" y="173.894667"/>
      </g>
     </g>
     <g id="text_8">
      <!-- 50 -->
      <g transform="translate(26.175 177.693885)scale(0.1 -0.1)">
       <defs>
        <path d="M 691 4666 
L 3169 4666 
L 3169 4134 
L 1269 4134 
L 1269 2991 
Q 1406 3038 1543 3061 
Q 1681 3084 1819 3084 
Q 2600 3084 3056 2656 
Q 3513 2228 3513 1497 
Q 3513 744 3044 326 
Q 2575 -91 1722 -91 
Q 1428 -91 1123 -41 
Q 819 9 494 109 
L 494 744 
Q 775 591 1075 516 
Q 1375 441 1709 441 
Q 2250 441 2565 725 
Q 2881 1009 2881 1497 
Q 2881 1984 2565 2268 
Q 2250 2553 1709 2553 
Q 1456 2553 1204 2497 
Q 953 2441 691 2322 
L 691 4666 
z
" id="DejaVuSans-35" transform="scale(0.015625)"/>
       </defs>
       <use xlink:href="#DejaVuSans-35"/>
       <use x="63.623047" xlink:href="#DejaVuSans-30"/>
      </g>
     </g>
    </g>
    <g id="ytick_4">
     <g id="line2d_17">
      <path clip-path="url(#pee79bc5a3f)" d="M 45.9 116.401333 
L 323.1 116.401333 
" style="fill:none;stroke:#b0b0b0;stroke-linecap:square;stroke-width:0.8;"/>
     </g>
     <g id="line2d_18">
      <g>
       <use style="stroke:#000000;stroke-width:0.8;" x="45.9" xlink:href="#m10f5f09f6a" y="116.401333"/>
      </g>
     </g>
     <g id="text_9">
      <!-- 51 -->
      <g transform="translate(26.175 120.200552)scale(0.1 -0.1)">
       <use xlink:href="#DejaVuSans-35"/>
       <use x="63.623047" xlink:href="#DejaVuSans-31"/>
      </g>
     </g>
    </g>
    <g id="ytick_5">
     <g id="line2d_19">
      <path clip-path="url(#pee79bc5a3f)" d="M 45.9 58.908 
L 323.1 58.908 
" style="fill:none;stroke:#b0b0b0;stroke-linecap:square;stroke-width:0.8;"/>
     </g>
     <g id="line2d_20">
      <g>
       <use style="stroke:#000000;stroke-width:0.8;" x="45.9" xlink:href="#m10f5f09f6a" y="58.908"/>
      </g>
     </g>
     <g id="text_10">
      <!-- 52 -->
      <g transform="translate(26.175 62.707219)scale(0.1 -0.1)">
       <use xlink:href="#DejaVuSans-35"/>
       <use x="63.623047" xlink:href="#DejaVuSans-32"/>
      </g>
     </g>
    </g>
   </g>
   <g id="line2d_21">
    <path clip-path="url(#pee79bc5a3f)" d="M 361 246.980416 
L 358.090877 254.913139 
L 353.866342 266.76107 
L 352.351863 270.042919 
L 350.468411 273.277371 
L 349.310671 274.908567 
L 347.940912 276.561603 
L 346.284382 278.232595 
L 344.246151 279.890404 
L 341.723304 281.453071 
L 338.64468 282.763457 
L 335.045691 283.59399 
L 331.139024 283.724086 
L 331.139024 283.724086 
L 308.585219 282.330436 
L 297.897101 281.751349 
L 294.033242 281.160112 
L 290.557743 279.909745 
L 287.655711 278.244438 
L 285.335394 276.394354 
L 283.507543 274.507113 
L 282.060274 272.651926 
L 280.895639 270.848487 
L 279.938951 269.09181 
L 278.451268 265.657299 
L 277.335574 262.219363 
L 276.466002 258.673401 
L 274.541983 249.954942 
L 272.35802 240.749697 
L 269.898337 231.06382 
L 267.147288 220.90384 
L 264.089367 210.276657 
L 260.709213 199.189544 
L 256.991622 187.65014 
L 252.921552 175.666448 
L 248.484133 163.246834 
L 243.66467 150.400018 
L 238.448655 137.135076 
L 232.821774 123.461435 
L 226.769911 109.388866 
L 219.647184 93.683857 
L 218.916775 92.495368 
L 218.092709 91.369792 
L 217.180378 90.314492 
L 216.18575 89.336371 
L 215.115331 88.441827 
L 213.976123 87.636713 
L 212.775577 86.926294 
L 211.521547 86.315217 
L 210.222236 85.80748 
L 208.886144 85.406404 
L 207.522009 85.114613 
L 206.138756 84.934015 
L 203.299361 84.853973 
L 184.5 84.78 
L 184.5 84.78 
" style="fill:none;stroke:#000000;stroke-linecap:square;stroke-width:1.5;"/>
   </g>
   <g id="line2d_22">
    <path clip-path="url(#pee79bc5a3f)" d="M 184.5 84.78 
L 164.254568 84.865791 
L 162.861244 84.934015 
L 161.477991 85.114613 
L 160.113856 85.406404 
L 158.777764 85.80748 
L 157.478453 86.315217 
L 156.224423 86.926294 
L 155.023877 87.636713 
L 153.884669 88.441827 
L 152.81425 89.336371 
L 151.819622 90.314492 
L 150.907291 91.369792 
L 150.083225 92.495368 
L 149.352816 93.683857 
L 148.720839 94.927485 
L 142.230089 109.388866 
L 136.178226 123.461435 
L 130.551345 137.135076 
L 125.33533 150.400018 
L 120.515867 163.246834 
L 116.078448 175.666448 
L 112.008378 187.65014 
L 108.290787 199.189544 
L 104.910633 210.276657 
L 101.852712 220.90384 
L 99.101663 231.06382 
L 96.64198 240.749697 
L 94.458017 249.954942 
L 91.664426 262.219363 
L 90.548732 265.657299 
L 89.061049 269.09181 
L 88.104361 270.848487 
L 86.939726 272.651926 
L 85.492457 274.507113 
L 83.664606 276.394354 
L 81.344289 278.244438 
L 78.442257 279.909745 
L 74.966758 281.160112 
L 71.102899 281.751349 
L 71.102899 281.751349 
L 48.542566 283.034991 
L 37.860976 283.724086 
L 33.954309 283.59399 
L 30.35532 282.763457 
L 27.276696 281.453071 
L 24.753849 279.890404 
L 22.715618 278.232595 
L 21.059088 276.561603 
L 19.689329 274.908567 
L 18.531589 273.277371 
L 16.648137 270.042919 
L 15.133658 266.76107 
L 13.850798 263.342844 
L 10.909123 254.913139 
L 7.651756 246.030809 
L 4.063758 236.703831 
L -1 224.257455 
L -1 224.257455 
" style="fill:none;stroke:#000000;stroke-linecap:square;stroke-width:1.5;"/>
   </g>
   <g id="line2d_23">
    <path clip-path="url(#pee79bc5a3f)" d="M 0 0 
" style="fill:none;stroke:#000000;stroke-linecap:square;stroke-width:1.5;"/>
   </g>
   <g id="line2d_24">
    <path clip-path="url(#pee79bc5a3f)" d="M 0 0 
" style="fill:none;stroke:#000000;stroke-linecap:square;stroke-width:1.5;"/>
   </g>
   <g id="line2d_25">
    <path clip-path="url(#pee79bc5a3f)" d="M 0 0 
" style="fill:none;stroke:#000000;stroke-linecap:square;stroke-width:1.5;"/>
   </g>
   <g id="line2d_26">
    <path clip-path="url(#pee79bc5a3f)" d="M 0 0 
" style="fill:none;stroke:#000000;stroke-linecap:square;stroke-width:1.5;"/>
   </g>
   <g id="line2d_27">
    <path clip-path="url(#pee79bc5a3f)" d="M 0 0 
" style="fill:none;stroke:#000000;stroke-linecap:square;stroke-width:1.5;"/>
   </g>
   <g id="line2d_28">
    <path clip-path="url(#pee79bc5a3f)" d="M 0 0 
" style="fill:none;stroke:#000000;stroke-linecap:square;stroke-width:1.5;"/>
   </g>
   <g id="line2d_29">
    <path clip-path="url(#pee79bc5a3f)" d="M 0 0 
" style="fill:none;stroke:#000000;stroke-linecap:square;stroke-width:1.5;"/>
   </g>
   <g id="line2d_30">
    <path clip-path="url(#pee79bc5a3f)" d="M 0 0 
" style="fill:none;stroke:#000000;stroke-linecap:square;stroke-width:1.5;"/>
   </g>
   <g id="line2d_31">
    <path clip-path="url(#pee79bc5a3f)" d="M 0 0 
" style="fill:none;stroke:#000000;stroke-linecap:square;stroke-width:1.5;"/>
   </g>
   <g id="line2d_32">
    <path clip-path="url(#pee79bc5a3f)" d="M 0 0 
" style="fill:none;stroke:#000000;stroke-linecap:square;stroke-width:1.5;"/>
   </g>
   <g id="line2d_33">
    <path clip-path="url(#pee79bc5a3f)" d="M 0 0 
" style="fill:none;stroke:#000000;stroke-linecap:square;stroke-width:1.5;"/>
   </g>
   <g id="line2d_34">
    <path clip-path="url(#pee79bc5a3f)" d="M 0 0 
" style="fill:none;stroke:#000000;stroke-linecap:square;stroke-width:1.5;"/>
   </g>
   <g id="line2d_35">
    <path clip-path="url(#pee79bc5a3f)" d="M 0 0 
" style="fill:none;stroke:#000000;stroke-linecap:square;stroke-width:1.5;"/>
   </g>
   <g id="line2d_36">
    <path clip-path="url(#pee79bc5a3f)" d="M 0 0 
" style="fill:none;stroke:#000000;stroke-linecap:square;stroke-width:1.5;"/>
   </g>
   <g id="line2d_37">
    <path clip-path="url(#pee79bc5a3f)" d="M 0 0 
" style="fill:none;stroke:#000000;stroke-linecap:square;stroke-width:1.5;"/>
   </g>
   <g id="line2d_38">
    <path clip-path="url(#pee79bc5a3f)" d="M 0 0 
" style="fill:none;stroke:#000000;stroke-linecap:square;stroke-width:1.5;"/>
   </g>
   <g id="line2d_39">
    <path clip-path="url(#pee79bc5a3f)" d="M 0 0 
" style="fill:none;stroke:#000000;stroke-linecap:square;stroke-width:1.5;"/>
   </g>
   <g id="line2d_40">
    <path clip-path="url(#pee79bc5a3f)" d="M 0 0 
" style="fill:none;stroke:#000000;stroke-linecap:square;stroke-width:1.5;"/>
   </g>
   <g id="line2d_41">
    <path clip-path="url(#pee79bc5a3f)" d="M 0 0 
" style="fill:none;stroke:#000000;stroke-linecap:square;stroke-width:1.5;"/>
   </g>
   <g id="line2d_42">
    <path clip-path="url(#pee79bc5a3f)" d="M 0 0 
" style="fill:none;stroke:#000000;stroke-linecap:square;stroke-width:1.5;"/>
   </g>
   <g id="line2d_43">
    <path clip-path="url(#pee79bc5a3f)" d="M 0 0 
" style="fill:none;stroke:#000000;stroke-linecap:square;stroke-width:1.5;"/>
   </g>
   <g id="line2d_44">
    <path clip-path="url(#pee79bc5a3f)" d="M 0 0 
" style="fill:none;stroke:#000000;stroke-linecap:square;stroke-width:1.5;"/>
   </g>
   <g id="line2d_45">
    <path clip-path="url(#pee79bc5a3f)" d="M 0 0 
" style="fill:none;stroke:#000000;stroke-linecap:square;stroke-width:1.5;"/>
   </g>
   <g id="line2d_46">
    <path clip-path="url(#pee79bc5a3f)" d="M 0 0 
" style="fill:none;stroke:#000000;stroke-linecap:square;stroke-width:1.5;"/>
   </g>
   <g id="line2d_47">
    <path clip-path="url(#pee79bc5a3f)" d="M 0 0 
" style="fill:none;stroke:#000000;stroke-linecap:square;stroke-width:1.5;"/>
   </g>
   <g id="line2d_48">
    <path clip-path="url(#pee79bc5a3f)" d="M 0 0 
" style="fill:none;stroke:#000000;stroke-linecap:square;stroke-width:1.5;"/>
   </g>
   <g id="line2d_49">
    <path clip-path="url(#pee79bc5a3f)" d="M 0 0 
" style="fill:none;stroke:#000000;stroke-linecap:square;stroke-width:1.5;"/>
   </g>
   <g id="line2d_50">
    <path clip-path="url(#pee79bc5a3f)" d="M 0 0 
" style="fill:none;stroke:#000000;stroke-linecap:square;stroke-width:1.5;"/>
   </g>
   <g id="line2d_51">
    <path clip-path="url(#pee79bc5a3f)" d="M 0 0 
" style="fill:none;stroke:#000000;stroke-linecap:square;stroke-width:1.5;"/>
   </g>
   <g id="line2d_52">
    <path clip-path="url(#pee79bc5a3f)" d="M 0 0 
" style="fill:none;stroke:#000000;stroke-linecap:square;stroke-width:1.5;"/>
   </g>
   <g id="line2d_53">
    <path clip-path="url(#pee79bc5a3f)" d="M 0 0 
" style="fill:none;stroke:#000000;stroke-linecap:square;stroke-width:1.5;"/>
   </g>
   <g id="line2d_54">
    <path clip-path="url(#pee79bc5a3f)" d="M 0 0 
" style="fill:none;stroke:#000000;stroke-linecap:square;stroke-width:1.5;"/>
   </g>
   <g id="line2d_55">
    <path clip-path="url(#pee79bc5a3f)" d="M 0 0 
" style="fill:none;stroke:#000000;stroke-linecap:square;stroke-width:1.5;"/>
   </g>
   <g id="line2d_56">
    <path clip-path="url(#pee79bc5a3f)" d="M 0 0 
" style="fill:none;stroke:#000000;stroke-linecap:square;stroke-width:1.5;"/>
   </g>
   <g id="line2d_57">
    <path clip-path="url(#pee79bc5a3f)" d="M 0 0 
" style="fill:none;stroke:#000000;stroke-linecap:square;stroke-width:1.5;"/>
   </g>
   <g id="line2d_58">
    <path clip-path="url(#pee79bc5a3f)" d="M 0 0 
" style="fill:none;stroke:#000000;stroke-linecap:square;stroke-width:1.5;"/>
   </g>
   <g id="line2d_59">
    <path clip-path="url(#pee79bc5a3f)" d="M 0 0 
" style="fill:none;stroke:#000000;stroke-linecap:square;stroke-width:1.5;"/>
   </g>
   <g id="line2d_60">
    <path clip-path="url(#pee79bc5a3f)" d="M 0 0 
" style="fill:none;stroke:#000000;stroke-linecap:square;stroke-width:1.5;"/>
   </g>
   <g id="line2d_61">
    <path clip-path="url(#pee79bc5a3f)" d="M 0 0 
" style="fill:none;stroke:#000000;stroke-linecap:square;stroke-width:1.5;"/>
   </g>
   <g id="line2d_62">
    <path clip-path="url(#pee79bc5a3f)" d="M 0 0 
" style="fill:none;stroke:#000000;stroke-linecap:square;stroke-width:1.5;"/>
   </g>
   <g id="line2d_63">
    <path clip-path="url(#pee79bc5a3f)" d="M 0 0 
" style="fill:none;stroke:#000000;stroke-linecap:square;stroke-width:1.5;"/>
   </g>
   <g id="line2d_64">
    <path clip-path="url(#pee79bc5a3f)" d="M 0 0 
" style="fill:none;stroke:#000000;stroke-linecap:square;stroke-width:1.5;"/>
   </g>
   <g id="line2d_65">
    <path clip-path="url(#pee79bc5a3f)" d="M 0 0 
" style="fill:none;stroke:#000000;stroke-linecap:square;stroke-width:1.5;"/>
   </g>
   <g id="line2d_66">
    <path clip-path="url(#pee79bc5a3f)" d="M 0 0 
" style="fill:none;stroke:#000000;stroke-linecap:square;stroke-width:1.5;"/>
   </g>
   <g id="line2d_67">
    <path clip-path="url(#pee79bc5a3f)" d="M 0 0 
" style="fill:none;stroke:#000000;stroke-linecap:square;stroke-width:1.5;"/>
   </g>
   <g id="line2d_68">
    <path clip-path="url(#pee79bc5a3f)" d="M 0 0 
" style="fill:none;stroke:#000000;stroke-linecap:square;stroke-width:1.5;"/>
   </g>
   <g id="line2d_69">
    <path clip-path="url(#pee79bc5a3f)" d="M 0 0 
" style="fill:none;stroke:#000000;stroke-linecap:square;stroke-width:1.5;"/>
   </g>
   <g id="line2d_70">
    <path clip-path="url(#pee79bc5a3f)" d="M 0 0 
" style="fill:none;stroke:#000000;stroke-linecap:square;stroke-width:1.5;"/>
   </g>
   <g id="line2d_71">
    <path clip-path="url(#pee79bc5a3f)" d="M 0 0 
" style="fill:none;stroke:#000000;stroke-linecap:square;stroke-width:1.5;"/>
   </g>
   <g id="line2d_72">
    <path clip-path="url(#pee79bc5a3f)" d="M 0 0 
" style="fill:none;stroke:#000000;stroke-linecap:square;stroke-width:1.5;"/>
   </g>
   <g id="line2d_73">
    <path clip-path="url(#pee79bc5a3f)" d="M 0 0 
" style="fill:none;stroke:#000000;stroke-linecap:square;stroke-width:1.5;"/>
   </g>
   <g id="line2d_74">
    <path clip-path="url(#pee79bc5a3f)" d="M 184.5 326.092072 
L 222.084059 326.420977 
L 259.656606 327.407591 
L 297.206132 329.051611 
L 334.721135 331.352534 
L 361 333.42651 
M -1 334.136807 
L 34.278865 331.352534 
L 71.793868 329.051611 
L 109.343394 327.407591 
L 146.915941 326.420977 
L 184.5 326.092072 
L 184.5 326.092072 
" style="fill:none;stroke:#00ffff;stroke-dasharray:1,1.65;stroke-dashoffset:0;"/>
   </g>
   <g id="line2d_75">
    <path clip-path="url(#pee79bc5a3f)" d="M 184.5 188.268 
L 224.496121 188.618013 
L 264.47999 189.667945 
L 304.439361 191.417475 
L 344.361993 193.866067 
L 361 195.179169 
M -1 195.889465 
L 24.638007 193.866067 
L 64.560639 191.417475 
L 104.52001 189.667945 
L 144.503879 188.618013 
L 184.5 188.268 
L 184.5 188.268 
" style="fill:none;stroke:#ff00ff;stroke-dasharray:1,1.65;stroke-dashoffset:0;"/>
   </g>
   <g id="line2d_76">
    <path clip-path="url(#pee79bc5a3f)" d="M 184.5 171.02 
L 224.797978 171.372655 
L 265.083613 172.430511 
L 305.344564 174.193245 
L 345.568499 176.660316 
L 361 177.878199 
M -1 178.588495 
L 23.431501 176.660316 
L 63.655436 174.193245 
L 103.916387 172.430511 
L 144.202022 171.372655 
L 184.5 171.02 
L 184.5 171.02 
" style="fill:none;stroke:#ff0000;stroke-dasharray:1,1.65;stroke-dashoffset:0;"/>
   </g>
   <g id="line2d_77">
    <path clip-path="url(#pee79bc5a3f)" d="M 184.5 84.78 
L 226.307266 85.145863 
L 268.101725 86.243339 
L 309.870577 88.072093 
L 351.601027 90.631564 
L 361 91.373348 
M -1 92.083645 
L 17.398973 90.631564 
L 59.129423 88.072093 
L 100.898275 86.243339 
L 142.692734 85.145863 
L 184.5 84.78 
L 184.5 84.78 
" style="fill:none;stroke:#a52a2a;stroke-dasharray:1,1.65;stroke-dashoffset:0;"/>
   </g>
   <g id="line2d_78">
    <path clip-path="url(#pee79bc5a3f)" d="M 184.5 278.82 
L 222.911369 279.156145 
L 261.310972 280.164476 
L 299.687047 281.844685 
L 338.027839 284.196256 
L 361 286.009262 
M -1 286.719558 
L 30.972161 284.196256 
L 69.312953 281.844685 
L 107.689028 280.164476 
L 146.088631 279.156145 
L 184.5 278.82 
L 184.5 278.82 
" style="fill:none;stroke:#808080;stroke-dasharray:1,1.65;stroke-dashoffset:0;"/>
   </g>
   <g id="patch_3">
    <path d="M 45.9 320.4 
L 45.9 43.2 
" style="fill:none;stroke:#000000;stroke-linecap:square;stroke-linejoin:miter;stroke-width:0.8;"/>
   </g>
   <g id="patch_4">
    <path d="M 323.1 320.4 
L 323.1 43.2 
" style="fill:none;stroke:#000000;stroke-linecap:square;stroke-linejoin:miter;stroke-width:0.8;"/>
   </g>
   <g id="patch_5">
    <path d="M 45.9 320.4 
L 323.1 320.4 
" style="fill:none;stroke:#000000;stroke-linecap:square;stroke-linejoin:miter;stroke-width:0.8;"/>
   </g>
   <g id="patch_6">
    <path d="M 45.9 43.2 
L 323.1 43.2 
" style="fill:none;stroke:#000000;stroke-linecap:square;stroke-linejoin:miter;stroke-width:0.8;"/>
   </g>
   <g id="text_11">
    <!-- Module m=1.5[mm] -->
    <g style="fill:#008000;" transform="translate(149.50505 1012.337673)scale(0.0694 -0.0694)">
     <defs>
      <path d="M 628 4666 
L 1569 4666 
L 2759 1491 
L 3956 4666 
L 4897 4666 
L 4897 0 
L 4281 0 
L 4281 4097 
L 3078 897 
L 2444 897 
L 1241 4097 
L 1241 0 
L 628 0 
L 628 4666 
z
" id="DejaVuSans-4d" transform="scale(0.015625)"/>
      <path d="M 1959 3097 
Q 1497 3097 1228 2736 
Q 959 2375 959 1747 
Q 959 1119 1226 758 
Q 1494 397 1959 397 
Q 2419 397 2687 759 
Q 2956 1122 2956 1747 
Q 2956 2369 2687 2733 
Q 2419 3097 1959 3097 
z
M 1959 3584 
Q 2709 3584 3137 3096 
Q 3566 2609 3566 1747 
Q 3566 888 3137 398 
Q 2709 -91 1959 -91 
Q 1206 -91 779 398 
Q 353 888 353 1747 
Q 353 2609 779 3096 
Q 1206 3584 1959 3584 
z
" id="DejaVuSans-6f" transform="scale(0.015625)"/>
      <path d="M 2906 2969 
L 2906 4863 
L 3481 4863 
L 3481 0 
L 2906 0 
L 2906 525 
Q 2725 213 2448 61 
Q 2172 -91 1784 -91 
Q 1150 -91 751 415 
Q 353 922 353 1747 
Q 353 2572 751 3078 
Q 1150 3584 1784 3584 
Q 2172 3584 2448 3432 
Q 2725 3281 2906 2969 
z
M 947 1747 
Q 947 1113 1208 752 
Q 1469 391 1925 391 
Q 2381 391 2643 752 
Q 2906 1113 2906 1747 
Q 2906 2381 2643 2742 
Q 2381 3103 1925 3103 
Q 1469 3103 1208 2742 
Q 947 2381 947 1747 
z
" id="DejaVuSans-64" transform="scale(0.015625)"/>
      <path d="M 544 1381 
L 544 3500 
L 1119 3500 
L 1119 1403 
Q 1119 906 1312 657 
Q 1506 409 1894 409 
Q 2359 409 2629 706 
Q 2900 1003 2900 1516 
L 2900 3500 
L 3475 3500 
L 3475 0 
L 2900 0 
L 2900 538 
Q 2691 219 2414 64 
Q 2138 -91 1772 -91 
Q 1169 -91 856 284 
Q 544 659 544 1381 
z
M 1991 3584 
L 1991 3584 
z
" id="DejaVuSans-75" transform="scale(0.015625)"/>
      <path d="M 603 4863 
L 1178 4863 
L 1178 0 
L 603 0 
L 603 4863 
z
" id="DejaVuSans-6c" transform="scale(0.015625)"/>
      <path d="M 3597 1894 
L 3597 1613 
L 953 1613 
Q 991 1019 1311 708 
Q 1631 397 2203 397 
Q 2534 397 2845 478 
Q 3156 559 3463 722 
L 3463 178 
Q 3153 47 2828 -22 
Q 2503 -91 2169 -91 
Q 1331 -91 842 396 
Q 353 884 353 1716 
Q 353 2575 817 3079 
Q 1281 3584 2069 3584 
Q 2775 3584 3186 3129 
Q 3597 2675 3597 1894 
z
M 3022 2063 
Q 3016 2534 2758 2815 
Q 2500 3097 2075 3097 
Q 1594 3097 1305 2825 
Q 1016 2553 972 2059 
L 3022 2063 
z
" id="DejaVuSans-65" transform="scale(0.015625)"/>
      <path id="DejaVuSans-20" transform="scale(0.015625)"/>
      <path d="M 3328 2828 
Q 3544 3216 3844 3400 
Q 4144 3584 4550 3584 
Q 5097 3584 5394 3201 
Q 5691 2819 5691 2113 
L 5691 0 
L 5113 0 
L 5113 2094 
Q 5113 2597 4934 2840 
Q 4756 3084 4391 3084 
Q 3944 3084 3684 2787 
Q 3425 2491 3425 1978 
L 3425 0 
L 2847 0 
L 2847 2094 
Q 2847 2600 2669 2842 
Q 2491 3084 2119 3084 
Q 1678 3084 1418 2786 
Q 1159 2488 1159 1978 
L 1159 0 
L 581 0 
L 581 3500 
L 1159 3500 
L 1159 2956 
Q 1356 3278 1631 3431 
Q 1906 3584 2284 3584 
Q 2666 3584 2933 3390 
Q 3200 3197 3328 2828 
z
" id="DejaVuSans-6d" transform="scale(0.015625)"/>
      <path d="M 678 2906 
L 4684 2906 
L 4684 2381 
L 678 2381 
L 678 2906 
z
M 678 1631 
L 4684 1631 
L 4684 1100 
L 678 1100 
L 678 1631 
z
" id="DejaVuSans-3d" transform="scale(0.015625)"/>
      <path d="M 684 794 
L 1344 794 
L 1344 0 
L 684 0 
L 684 794 
z
" id="DejaVuSans-2e" transform="scale(0.015625)"/>
      <path d="M 550 4863 
L 1875 4863 
L 1875 4416 
L 1125 4416 
L 1125 -397 
L 1875 -397 
L 1875 -844 
L 550 -844 
L 550 4863 
z
" id="DejaVuSans-5b" transform="scale(0.015625)"/>
      <path d="M 1947 4863 
L 1947 -844 
L 622 -844 
L 622 -397 
L 1369 -397 
L 1369 4416 
L 622 4416 
L 622 4863 
L 1947 4863 
z
" id="DejaVuSans-5d" transform="scale(0.015625)"/>
     </defs>
     <use xlink:href="#DejaVuSans-4d"/>
     <use x="86.279297" xlink:href="#DejaVuSans-6f"/>
     <use x="147.460938" xlink:href="#DejaVuSans-64"/>
     <use x="210.9375" xlink:href="#DejaVuSans-75"/>
     <use x="274.316406" xlink:href="#DejaVuSans-6c"/>
     <use x="302.099609" xlink:href="#DejaVuSans-65"/>
     <use x="363.623047" xlink:href="#DejaVuSans-20"/>
     <use x="395.410156" xlink:href="#DejaVuSans-6d"/>
     <use x="492.822266" xlink:href="#DejaVuSans-3d"/>
     <use x="576.611328" xlink:href="#DejaVuSans-31"/>
     <use x="640.234375" xlink:href="#DejaVuSans-2e"/>
     <use x="672.021484" xlink:href="#DejaVuSans-35"/>
     <use x="735.644531" xlink:href="#DejaVuSans-5b"/>
     <use x="774.658203" xlink:href="#DejaVuSans-6d"/>
     <use x="872.070312" xlink:href="#DejaVuSans-6d"/>
     <use x="969.482422" xlink:href="#DejaVuSans-5d"/>
    </g>
   </g>
   <g id="text_12">
    <!-- Teeth Number z=53[ea] -->
    <g style="fill:#008000;" transform="translate(142.881687 1207.431717)scale(0.0694 -0.0694)">
     <defs>
      <path d="M -19 4666 
L 3928 4666 
L 3928 4134 
L 2272 4134 
L 2272 0 
L 1638 0 
L 1638 4134 
L -19 4134 
L -19 4666 
z
" id="DejaVuSans-54" transform="scale(0.015625)"/>
      <path d="M 1172 4494 
L 1172 3500 
L 2356 3500 
L 2356 3053 
L 1172 3053 
L 1172 1153 
Q 1172 725 1289 603 
Q 1406 481 1766 481 
L 2356 481 
L 2356 0 
L 1766 0 
Q 1100 0 847 248 
Q 594 497 594 1153 
L 594 3053 
L 172 3053 
L 172 3500 
L 594 3500 
L 594 4494 
L 1172 4494 
z
" id="DejaVuSans-74" transform="scale(0.015625)"/>
      <path d="M 3513 2113 
L 3513 0 
L 2938 0 
L 2938 2094 
Q 2938 2591 2744 2837 
Q 2550 3084 2163 3084 
Q 1697 3084 1428 2787 
Q 1159 2491 1159 1978 
L 1159 0 
L 581 0 
L 581 4863 
L 1159 4863 
L 1159 2956 
Q 1366 3272 1645 3428 
Q 1925 3584 2291 3584 
Q 2894 3584 3203 3211 
Q 3513 2838 3513 2113 
z
" id="DejaVuSans-68" transform="scale(0.015625)"/>
      <path d="M 628 4666 
L 1478 4666 
L 3547 763 
L 3547 4666 
L 4159 4666 
L 4159 0 
L 3309 0 
L 1241 3903 
L 1241 0 
L 628 0 
L 628 4666 
z
" id="DejaVuSans-4e" transform="scale(0.015625)"/>
      <path d="M 3116 1747 
Q 3116 2381 2855 2742 
Q 2594 3103 2138 3103 
Q 1681 3103 1420 2742 
Q 1159 2381 1159 1747 
Q 1159 1113 1420 752 
Q 1681 391 2138 391 
Q 2594 391 2855 752 
Q 3116 1113 3116 1747 
z
M 1159 2969 
Q 1341 3281 1617 3432 
Q 1894 3584 2278 3584 
Q 2916 3584 3314 3078 
Q 3713 2572 3713 1747 
Q 3713 922 3314 415 
Q 2916 -91 2278 -91 
Q 1894 -91 1617 61 
Q 1341 213 1159 525 
L 1159 0 
L 581 0 
L 581 4863 
L 1159 4863 
L 1159 2969 
z
" id="DejaVuSans-62" transform="scale(0.015625)"/>
      <path d="M 2631 2963 
Q 2534 3019 2420 3045 
Q 2306 3072 2169 3072 
Q 1681 3072 1420 2755 
Q 1159 2438 1159 1844 
L 1159 0 
L 581 0 
L 581 3500 
L 1159 3500 
L 1159 2956 
Q 1341 3275 1631 3429 
Q 1922 3584 2338 3584 
Q 2397 3584 2469 3576 
Q 2541 3569 2628 3553 
L 2631 2963 
z
" id="DejaVuSans-72" transform="scale(0.015625)"/>
      <path d="M 353 3500 
L 3084 3500 
L 3084 2975 
L 922 459 
L 3084 459 
L 3084 0 
L 275 0 
L 275 525 
L 2438 3041 
L 353 3041 
L 353 3500 
z
" id="DejaVuSans-7a" transform="scale(0.015625)"/>
      <path d="M 2597 2516 
Q 3050 2419 3304 2112 
Q 3559 1806 3559 1356 
Q 3559 666 3084 287 
Q 2609 -91 1734 -91 
Q 1441 -91 1130 -33 
Q 819 25 488 141 
L 488 750 
Q 750 597 1062 519 
Q 1375 441 1716 441 
Q 2309 441 2620 675 
Q 2931 909 2931 1356 
Q 2931 1769 2642 2001 
Q 2353 2234 1838 2234 
L 1294 2234 
L 1294 2753 
L 1863 2753 
Q 2328 2753 2575 2939 
Q 2822 3125 2822 3475 
Q 2822 3834 2567 4026 
Q 2313 4219 1838 4219 
Q 1578 4219 1281 4162 
Q 984 4106 628 3988 
L 628 4550 
Q 988 4650 1302 4700 
Q 1616 4750 1894 4750 
Q 2613 4750 3031 4423 
Q 3450 4097 3450 3541 
Q 3450 3153 3228 2886 
Q 3006 2619 2597 2516 
z
" id="DejaVuSans-33" transform="scale(0.015625)"/>
      <path d="M 2194 1759 
Q 1497 1759 1228 1600 
Q 959 1441 959 1056 
Q 959 750 1161 570 
Q 1363 391 1709 391 
Q 2188 391 2477 730 
Q 2766 1069 2766 1631 
L 2766 1759 
L 2194 1759 
z
M 3341 1997 
L 3341 0 
L 2766 0 
L 2766 531 
Q 2569 213 2275 61 
Q 1981 -91 1556 -91 
Q 1019 -91 701 211 
Q 384 513 384 1019 
Q 384 1609 779 1909 
Q 1175 2209 1959 2209 
L 2766 2209 
L 2766 2266 
Q 2766 2663 2505 2880 
Q 2244 3097 1772 3097 
Q 1472 3097 1187 3025 
Q 903 2953 641 2809 
L 641 3341 
Q 956 3463 1253 3523 
Q 1550 3584 1831 3584 
Q 2591 3584 2966 3190 
Q 3341 2797 3341 1997 
z
" id="DejaVuSans-61" transform="scale(0.015625)"/>
     </defs>
     <use xlink:href="#DejaVuSans-54"/>
     <use x="44.083984" xlink:href="#DejaVuSans-65"/>
     <use x="105.607422" xlink:href="#DejaVuSans-65"/>
     <use x="167.130859" xlink:href="#DejaVuSans-74"/>
     <use x="206.339844" xlink:href="#DejaVuSans-68"/>
     <use x="269.71875" xlink:href="#DejaVuSans-20"/>
     <use x="301.505859" xlink:href="#DejaVuSans-4e"/>
     <use x="376.310547" xlink:href="#DejaVuSans-75"/>
     <use x="439.689453" xlink:href="#DejaVuSans-6d"/>
     <use x="537.101562" xlink:href="#DejaVuSans-62"/>
     <use x="600.578125" xlink:href="#DejaVuSans-65"/>
     <use x="662.101562" xlink:href="#DejaVuSans-72"/>
     <use x="703.214844" xlink:href="#DejaVuSans-20"/>
     <use x="735.001953" xlink:href="#DejaVuSans-7a"/>
     <use x="787.492188" xlink:href="#DejaVuSans-3d"/>
     <use x="871.28125" xlink:href="#DejaVuSans-35"/>
     <use x="934.904297" xlink:href="#DejaVuSans-33"/>
     <use x="998.527344" xlink:href="#DejaVuSans-5b"/>
     <use x="1037.541016" xlink:href="#DejaVuSans-65"/>
     <use x="1099.064453" xlink:href="#DejaVuSans-61"/>
     <use x="1160.34375" xlink:href="#DejaVuSans-5d"/>
    </g>
   </g>
   <g id="text_13">
    <!-- Pressure angle alpha=20.0[deg] -->
    <g style="fill:#008000;" transform="translate(128.352147 1402.525762)scale(0.0694 -0.0694)">
     <defs>
      <path d="M 1259 4147 
L 1259 2394 
L 2053 2394 
Q 2494 2394 2734 2622 
Q 2975 2850 2975 3272 
Q 2975 3691 2734 3919 
Q 2494 4147 2053 4147 
L 1259 4147 
z
M 628 4666 
L 2053 4666 
Q 2838 4666 3239 4311 
Q 3641 3956 3641 3272 
Q 3641 2581 3239 2228 
Q 2838 1875 2053 1875 
L 1259 1875 
L 1259 0 
L 628 0 
L 628 4666 
z
" id="DejaVuSans-50" transform="scale(0.015625)"/>
      <path d="M 2834 3397 
L 2834 2853 
Q 2591 2978 2328 3040 
Q 2066 3103 1784 3103 
Q 1356 3103 1142 2972 
Q 928 2841 928 2578 
Q 928 2378 1081 2264 
Q 1234 2150 1697 2047 
L 1894 2003 
Q 2506 1872 2764 1633 
Q 3022 1394 3022 966 
Q 3022 478 2636 193 
Q 2250 -91 1575 -91 
Q 1294 -91 989 -36 
Q 684 19 347 128 
L 347 722 
Q 666 556 975 473 
Q 1284 391 1588 391 
Q 1994 391 2212 530 
Q 2431 669 2431 922 
Q 2431 1156 2273 1281 
Q 2116 1406 1581 1522 
L 1381 1569 
Q 847 1681 609 1914 
Q 372 2147 372 2553 
Q 372 3047 722 3315 
Q 1072 3584 1716 3584 
Q 2034 3584 2315 3537 
Q 2597 3491 2834 3397 
z
" id="DejaVuSans-73" transform="scale(0.015625)"/>
      <path d="M 3513 2113 
L 3513 0 
L 2938 0 
L 2938 2094 
Q 2938 2591 2744 2837 
Q 2550 3084 2163 3084 
Q 1697 3084 1428 2787 
Q 1159 2491 1159 1978 
L 1159 0 
L 581 0 
L 581 3500 
L 1159 3500 
L 1159 2956 
Q 1366 3272 1645 3428 
Q 1925 3584 2291 3584 
Q 2894 3584 3203 3211 
Q 3513 2838 3513 2113 
z
" id="DejaVuSans-6e" transform="scale(0.015625)"/>
      <path d="M 2906 1791 
Q 2906 2416 2648 2759 
Q 2391 3103 1925 3103 
Q 1463 3103 1205 2759 
Q 947 2416 947 1791 
Q 947 1169 1205 825 
Q 1463 481 1925 481 
Q 2391 481 2648 825 
Q 2906 1169 2906 1791 
z
M 3481 434 
Q 3481 -459 3084 -895 
Q 2688 -1331 1869 -1331 
Q 1566 -1331 1297 -1286 
Q 1028 -1241 775 -1147 
L 775 -588 
Q 1028 -725 1275 -790 
Q 1522 -856 1778 -856 
Q 2344 -856 2625 -561 
Q 2906 -266 2906 331 
L 2906 616 
Q 2728 306 2450 153 
Q 2172 0 1784 0 
Q 1141 0 747 490 
Q 353 981 353 1791 
Q 353 2603 747 3093 
Q 1141 3584 1784 3584 
Q 2172 3584 2450 3431 
Q 2728 3278 2906 2969 
L 2906 3500 
L 3481 3500 
L 3481 434 
z
" id="DejaVuSans-67" transform="scale(0.015625)"/>
      <path d="M 1159 525 
L 1159 -1331 
L 581 -1331 
L 581 3500 
L 1159 3500 
L 1159 2969 
Q 1341 3281 1617 3432 
Q 1894 3584 2278 3584 
Q 2916 3584 3314 3078 
Q 3713 2572 3713 1747 
Q 3713 922 3314 415 
Q 2916 -91 2278 -91 
Q 1894 -91 1617 61 
Q 1341 213 1159 525 
z
M 3116 1747 
Q 3116 2381 2855 2742 
Q 2594 3103 2138 3103 
Q 1681 3103 1420 2742 
Q 1159 2381 1159 1747 
Q 1159 1113 1420 752 
Q 1681 391 2138 391 
Q 2594 391 2855 752 
Q 3116 1113 3116 1747 
z
" id="DejaVuSans-70" transform="scale(0.015625)"/>
     </defs>
     <use xlink:href="#DejaVuSans-50"/>
     <use x="58.552734" xlink:href="#DejaVuSans-72"/>
     <use x="97.416016" xlink:href="#DejaVuSans-65"/>
     <use x="158.939453" xlink:href="#DejaVuSans-73"/>
     <use x="211.039062" xlink:href="#DejaVuSans-73"/>
     <use x="263.138672" xlink:href="#DejaVuSans-75"/>
     <use x="326.517578" xlink:href="#DejaVuSans-72"/>
     <use x="365.380859" xlink:href="#DejaVuSans-65"/>
     <use x="426.904297" xlink:href="#DejaVuSans-20"/>
     <use x="458.691406" xlink:href="#DejaVuSans-61"/>
     <use x="519.970703" xlink:href="#DejaVuSans-6e"/>
     <use x="583.349609" xlink:href="#DejaVuSans-67"/>
     <use x="646.826172" xlink:href="#DejaVuSans-6c"/>
     <use x="674.609375" xlink:href="#DejaVuSans-65"/>
     <use x="736.132812" xlink:href="#DejaVuSans-20"/>
     <use x="767.919922" xlink:href="#DejaVuSans-61"/>
     <use x="829.199219" xlink:href="#DejaVuSans-6c"/>
     <use x="856.982422" xlink:href="#DejaVuSans-70"/>
     <use x="920.458984" xlink:href="#DejaVuSans-68"/>
     <use x="983.837891" xlink:href="#DejaVuSans-61"/>
     <use x="1045.117188" xlink:href="#DejaVuSans-3d"/>
     <use x="1128.90625" xlink:href="#DejaVuSans-32"/>
     <use x="1192.529297" xlink:href="#DejaVuSans-30"/>
     <use x="1256.152344" xlink:href="#DejaVuSans-2e"/>
     <use x="1287.939453" xlink:href="#DejaVuSans-30"/>
     <use x="1351.5625" xlink:href="#DejaVuSans-5b"/>
     <use x="1390.576172" xlink:href="#DejaVuSans-64"/>
     <use x="1454.052734" xlink:href="#DejaVuSans-65"/>
     <use x="1515.576172" xlink:href="#DejaVuSans-67"/>
     <use x="1579.052734" xlink:href="#DejaVuSans-5d"/>
    </g>
   </g>
   <g id="text_14">
    <!-- Offset factor x=0.2 -->
    <g style="fill:#008000;" transform="translate(151.17065 1597.619806)scale(0.0694 -0.0694)">
     <defs>
      <path d="M 2522 4238 
Q 1834 4238 1429 3725 
Q 1025 3213 1025 2328 
Q 1025 1447 1429 934 
Q 1834 422 2522 422 
Q 3209 422 3611 934 
Q 4013 1447 4013 2328 
Q 4013 3213 3611 3725 
Q 3209 4238 2522 4238 
z
M 2522 4750 
Q 3503 4750 4090 4092 
Q 4678 3434 4678 2328 
Q 4678 1225 4090 567 
Q 3503 -91 2522 -91 
Q 1538 -91 948 565 
Q 359 1222 359 2328 
Q 359 3434 948 4092 
Q 1538 4750 2522 4750 
z
" id="DejaVuSans-4f" transform="scale(0.015625)"/>
      <path d="M 2375 4863 
L 2375 4384 
L 1825 4384 
Q 1516 4384 1395 4259 
Q 1275 4134 1275 3809 
L 1275 3500 
L 2222 3500 
L 2222 3053 
L 1275 3053 
L 1275 0 
L 697 0 
L 697 3053 
L 147 3053 
L 147 3500 
L 697 3500 
L 697 3744 
Q 697 4328 969 4595 
Q 1241 4863 1831 4863 
L 2375 4863 
z
" id="DejaVuSans-66" transform="scale(0.015625)"/>
      <path d="M 3122 3366 
L 3122 2828 
Q 2878 2963 2633 3030 
Q 2388 3097 2138 3097 
Q 1578 3097 1268 2742 
Q 959 2388 959 1747 
Q 959 1106 1268 751 
Q 1578 397 2138 397 
Q 2388 397 2633 464 
Q 2878 531 3122 666 
L 3122 134 
Q 2881 22 2623 -34 
Q 2366 -91 2075 -91 
Q 1284 -91 818 406 
Q 353 903 353 1747 
Q 353 2603 823 3093 
Q 1294 3584 2113 3584 
Q 2378 3584 2631 3529 
Q 2884 3475 3122 3366 
z
" id="DejaVuSans-63" transform="scale(0.015625)"/>
      <path d="M 3513 3500 
L 2247 1797 
L 3578 0 
L 2900 0 
L 1881 1375 
L 863 0 
L 184 0 
L 1544 1831 
L 300 3500 
L 978 3500 
L 1906 2253 
L 2834 3500 
L 3513 3500 
z
" id="DejaVuSans-78" transform="scale(0.015625)"/>
     </defs>
     <use xlink:href="#DejaVuSans-4f"/>
     <use x="78.710938" xlink:href="#DejaVuSans-66"/>
     <use x="113.916016" xlink:href="#DejaVuSans-66"/>
     <use x="149.121094" xlink:href="#DejaVuSans-73"/>
     <use x="201.220703" xlink:href="#DejaVuSans-65"/>
     <use x="262.744141" xlink:href="#DejaVuSans-74"/>
     <use x="301.953125" xlink:href="#DejaVuSans-20"/>
     <use x="333.740234" xlink:href="#DejaVuSans-66"/>
     <use x="368.945312" xlink:href="#DejaVuSans-61"/>
     <use x="430.224609" xlink:href="#DejaVuSans-63"/>
     <use x="485.205078" xlink:href="#DejaVuSans-74"/>
     <use x="524.414062" xlink:href="#DejaVuSans-6f"/>
     <use x="585.595703" xlink:href="#DejaVuSans-72"/>
     <use x="626.708984" xlink:href="#DejaVuSans-20"/>
     <use x="658.496094" xlink:href="#DejaVuSans-78"/>
     <use x="717.675781" xlink:href="#DejaVuSans-3d"/>
     <use x="801.464844" xlink:href="#DejaVuSans-30"/>
     <use x="865.087891" xlink:href="#DejaVuSans-2e"/>
     <use x="896.875" xlink:href="#DejaVuSans-32"/>
    </g>
   </g>
   <g id="text_15">
    <!-- Backlash factor b=0.02 -->
    <g style="fill:#008000;" transform="translate(143.769791 1792.713851)scale(0.0694 -0.0694)">
     <defs>
      <path d="M 1259 2228 
L 1259 519 
L 2272 519 
Q 2781 519 3026 730 
Q 3272 941 3272 1375 
Q 3272 1813 3026 2020 
Q 2781 2228 2272 2228 
L 1259 2228 
z
M 1259 4147 
L 1259 2741 
L 2194 2741 
Q 2656 2741 2882 2914 
Q 3109 3088 3109 3444 
Q 3109 3797 2882 3972 
Q 2656 4147 2194 4147 
L 1259 4147 
z
M 628 4666 
L 2241 4666 
Q 2963 4666 3353 4366 
Q 3744 4066 3744 3513 
Q 3744 3084 3544 2831 
Q 3344 2578 2956 2516 
Q 3422 2416 3680 2098 
Q 3938 1781 3938 1306 
Q 3938 681 3513 340 
Q 3088 0 2303 0 
L 628 0 
L 628 4666 
z
" id="DejaVuSans-42" transform="scale(0.015625)"/>
      <path d="M 581 4863 
L 1159 4863 
L 1159 1991 
L 2875 3500 
L 3609 3500 
L 1753 1863 
L 3688 0 
L 2938 0 
L 1159 1709 
L 1159 0 
L 581 0 
L 581 4863 
z
" id="DejaVuSans-6b" transform="scale(0.015625)"/>
     </defs>
     <use xlink:href="#DejaVuSans-42"/>
     <use x="68.603516" xlink:href="#DejaVuSans-61"/>
     <use x="129.882812" xlink:href="#DejaVuSans-63"/>
     <use x="184.863281" xlink:href="#DejaVuSans-6b"/>
     <use x="242.773438" xlink:href="#DejaVuSans-6c"/>
     <use x="270.556641" xlink:href="#DejaVuSans-61"/>
     <use x="331.835938" xlink:href="#DejaVuSans-73"/>
     <use x="383.935547" xlink:href="#DejaVuSans-68"/>
     <use x="447.314453" xlink:href="#DejaVuSans-20"/>
     <use x="479.101562" xlink:href="#DejaVuSans-66"/>
     <use x="514.306641" xlink:href="#DejaVuSans-61"/>
     <use x="575.585938" xlink:href="#DejaVuSans-63"/>
     <use x="630.566406" xlink:href="#DejaVuSans-74"/>
     <use x="669.775391" xlink:href="#DejaVuSans-6f"/>
     <use x="730.957031" xlink:href="#DejaVuSans-72"/>
     <use x="772.070312" xlink:href="#DejaVuSans-20"/>
     <use x="803.857422" xlink:href="#DejaVuSans-62"/>
     <use x="867.333984" xlink:href="#DejaVuSans-3d"/>
     <use x="951.123047" xlink:href="#DejaVuSans-30"/>
     <use x="1014.746094" xlink:href="#DejaVuSans-2e"/>
     <use x="1046.533203" xlink:href="#DejaVuSans-30"/>
     <use x="1110.15625" xlink:href="#DejaVuSans-32"/>
    </g>
   </g>
   <g id="text_16">
    <!-- Addendum factor a=1.0 -->
    <g style="fill:#008000;" transform="translate(142.740719 1987.807895)scale(0.0694 -0.0694)">
     <defs>
      <path d="M 2188 4044 
L 1331 1722 
L 3047 1722 
L 2188 4044 
z
M 1831 4666 
L 2547 4666 
L 4325 0 
L 3669 0 
L 3244 1197 
L 1141 1197 
L 716 0 
L 50 0 
L 1831 4666 
z
" id="DejaVuSans-41" transform="scale(0.015625)"/>
     </defs>
     <use xlink:href="#DejaVuSans-41"/>
     <use x="66.658203" xlink:href="#DejaVuSans-64"/>
     <use x="130.134766" xlink:href="#DejaVuSans-64"/>
     <use x="193.611328" xlink:href="#DejaVuSans-65"/>
     <use x="255.134766" xlink:href="#DejaVuSans-6e"/>
     <use x="318.513672" xlink:href="#DejaVuSans-64"/>
     <use x="381.990234" xlink:href="#DejaVuSans-75"/>
     <use x="445.369141" xlink:href="#DejaVuSans-6d"/>
     <use x="542.78125" xlink:href="#DejaVuSans-20"/>
     <use x="574.568359" xlink:href="#DejaVuSans-66"/>
     <use x="609.773438" xlink:href="#DejaVuSans-61"/>
     <use x="671.052734" xlink:href="#DejaVuSans-63"/>
     <use x="726.033203" xlink:href="#DejaVuSans-74"/>
     <use x="765.242188" xlink:href="#DejaVuSans-6f"/>
     <use x="826.423828" xlink:href="#DejaVuSans-72"/>
     <use x="867.537109" xlink:href="#DejaVuSans-20"/>
     <use x="899.324219" xlink:href="#DejaVuSans-61"/>
     <use x="960.603516" xlink:href="#DejaVuSans-3d"/>
     <use x="1044.392578" xlink:href="#DejaVuSans-31"/>
     <use x="1108.015625" xlink:href="#DejaVuSans-2e"/>
     <use x="1139.802734" xlink:href="#DejaVuSans-30"/>
    </g>
   </g>
   <g id="text_17">
    <!-- Dedendum factor d=1.25 -->
    <g style="fill:#008000;" transform="translate(140.165328 2182.90194)scale(0.0694 -0.0694)">
     <defs>
      <path d="M 1259 4147 
L 1259 519 
L 2022 519 
Q 2988 519 3436 956 
Q 3884 1394 3884 2338 
Q 3884 3275 3436 3711 
Q 2988 4147 2022 4147 
L 1259 4147 
z
M 628 4666 
L 1925 4666 
Q 3281 4666 3915 4102 
Q 4550 3538 4550 2338 
Q 4550 1131 3912 565 
Q 3275 0 1925 0 
L 628 0 
L 628 4666 
z
" id="DejaVuSans-44" transform="scale(0.015625)"/>
     </defs>
     <use xlink:href="#DejaVuSans-44"/>
     <use x="77.001953" xlink:href="#DejaVuSans-65"/>
     <use x="138.525391" xlink:href="#DejaVuSans-64"/>
     <use x="202.001953" xlink:href="#DejaVuSans-65"/>
     <use x="263.525391" xlink:href="#DejaVuSans-6e"/>
     <use x="326.904297" xlink:href="#DejaVuSans-64"/>
     <use x="390.380859" xlink:href="#DejaVuSans-75"/>
     <use x="453.759766" xlink:href="#DejaVuSans-6d"/>
     <use x="551.171875" xlink:href="#DejaVuSans-20"/>
     <use x="582.958984" xlink:href="#DejaVuSans-66"/>
     <use x="618.164062" xlink:href="#DejaVuSans-61"/>
     <use x="679.443359" xlink:href="#DejaVuSans-63"/>
     <use x="734.423828" xlink:href="#DejaVuSans-74"/>
     <use x="773.632812" xlink:href="#DejaVuSans-6f"/>
     <use x="834.814453" xlink:href="#DejaVuSans-72"/>
     <use x="875.927734" xlink:href="#DejaVuSans-20"/>
     <use x="907.714844" xlink:href="#DejaVuSans-64"/>
     <use x="971.191406" xlink:href="#DejaVuSans-3d"/>
     <use x="1054.980469" xlink:href="#DejaVuSans-31"/>
     <use x="1118.603516" xlink:href="#DejaVuSans-2e"/>
     <use x="1150.390625" xlink:href="#DejaVuSans-32"/>
     <use x="1214.013672" xlink:href="#DejaVuSans-35"/>
    </g>
   </g>
   <g id="text_18">
    <!-- Radius Factor of Edge Round of Hob c=0.2 -->
    <g style="fill:#008000;" transform="translate(110.851419 2377.995984)scale(0.0694 -0.0694)">
     <defs>
      <path d="M 2841 2188 
Q 3044 2119 3236 1894 
Q 3428 1669 3622 1275 
L 4263 0 
L 3584 0 
L 2988 1197 
Q 2756 1666 2539 1819 
Q 2322 1972 1947 1972 
L 1259 1972 
L 1259 0 
L 628 0 
L 628 4666 
L 2053 4666 
Q 2853 4666 3247 4331 
Q 3641 3997 3641 3322 
Q 3641 2881 3436 2590 
Q 3231 2300 2841 2188 
z
M 1259 4147 
L 1259 2491 
L 2053 2491 
Q 2509 2491 2742 2702 
Q 2975 2913 2975 3322 
Q 2975 3731 2742 3939 
Q 2509 4147 2053 4147 
L 1259 4147 
z
" id="DejaVuSans-52" transform="scale(0.015625)"/>
      <path d="M 603 3500 
L 1178 3500 
L 1178 0 
L 603 0 
L 603 3500 
z
M 603 4863 
L 1178 4863 
L 1178 4134 
L 603 4134 
L 603 4863 
z
" id="DejaVuSans-69" transform="scale(0.015625)"/>
      <path d="M 628 4666 
L 3309 4666 
L 3309 4134 
L 1259 4134 
L 1259 2759 
L 3109 2759 
L 3109 2228 
L 1259 2228 
L 1259 0 
L 628 0 
L 628 4666 
z
" id="DejaVuSans-46" transform="scale(0.015625)"/>
      <path d="M 628 4666 
L 3578 4666 
L 3578 4134 
L 1259 4134 
L 1259 2753 
L 3481 2753 
L 3481 2222 
L 1259 2222 
L 1259 531 
L 3634 531 
L 3634 0 
L 628 0 
L 628 4666 
z
" id="DejaVuSans-45" transform="scale(0.015625)"/>
      <path d="M 628 4666 
L 1259 4666 
L 1259 2753 
L 3553 2753 
L 3553 4666 
L 4184 4666 
L 4184 0 
L 3553 0 
L 3553 2222 
L 1259 2222 
L 1259 0 
L 628 0 
L 628 4666 
z
" id="DejaVuSans-48" transform="scale(0.015625)"/>
     </defs>
     <use xlink:href="#DejaVuSans-52"/>
     <use x="67.232422" xlink:href="#DejaVuSans-61"/>
     <use x="128.511719" xlink:href="#DejaVuSans-64"/>
     <use x="191.988281" xlink:href="#DejaVuSans-69"/>
     <use x="219.771484" xlink:href="#DejaVuSans-75"/>
     <use x="283.150391" xlink:href="#DejaVuSans-73"/>
     <use x="335.25" xlink:href="#DejaVuSans-20"/>
     <use x="367.037109" xlink:href="#DejaVuSans-46"/>
     <use x="415.431641" xlink:href="#DejaVuSans-61"/>
     <use x="476.710938" xlink:href="#DejaVuSans-63"/>
     <use x="531.691406" xlink:href="#DejaVuSans-74"/>
     <use x="570.900391" xlink:href="#DejaVuSans-6f"/>
     <use x="632.082031" xlink:href="#DejaVuSans-72"/>
     <use x="673.195312" xlink:href="#DejaVuSans-20"/>
     <use x="704.982422" xlink:href="#DejaVuSans-6f"/>
     <use x="766.164062" xlink:href="#DejaVuSans-66"/>
     <use x="801.369141" xlink:href="#DejaVuSans-20"/>
     <use x="833.15625" xlink:href="#DejaVuSans-45"/>
     <use x="896.339844" xlink:href="#DejaVuSans-64"/>
     <use x="959.816406" xlink:href="#DejaVuSans-67"/>
     <use x="1023.292969" xlink:href="#DejaVuSans-65"/>
     <use x="1084.816406" xlink:href="#DejaVuSans-20"/>
     <use x="1116.603516" xlink:href="#DejaVuSans-52"/>
     <use x="1181.585938" xlink:href="#DejaVuSans-6f"/>
     <use x="1242.767578" xlink:href="#DejaVuSans-75"/>
     <use x="1306.146484" xlink:href="#DejaVuSans-6e"/>
     <use x="1369.525391" xlink:href="#DejaVuSans-64"/>
     <use x="1433.001953" xlink:href="#DejaVuSans-20"/>
     <use x="1464.789062" xlink:href="#DejaVuSans-6f"/>
     <use x="1525.970703" xlink:href="#DejaVuSans-66"/>
     <use x="1561.175781" xlink:href="#DejaVuSans-20"/>
     <use x="1592.962891" xlink:href="#DejaVuSans-48"/>
     <use x="1668.158203" xlink:href="#DejaVuSans-6f"/>
     <use x="1729.339844" xlink:href="#DejaVuSans-62"/>
     <use x="1792.816406" xlink:href="#DejaVuSans-20"/>
     <use x="1824.603516" xlink:href="#DejaVuSans-63"/>
     <use x="1879.583984" xlink:href="#DejaVuSans-3d"/>
     <use x="1963.373047" xlink:href="#DejaVuSans-30"/>
     <use x="2026.996094" xlink:href="#DejaVuSans-2e"/>
     <use x="2058.783203" xlink:href="#DejaVuSans-32"/>
    </g>
   </g>
   <g id="text_19">
    <!-- Radius Factor of Edge Round of Tooth e=0.2 -->
    <g style="fill:#008000;" transform="translate(108.22452 2573.090028)scale(0.0694 -0.0694)">
     <use xlink:href="#DejaVuSans-52"/>
     <use x="67.232422" xlink:href="#DejaVuSans-61"/>
     <use x="128.511719" xlink:href="#DejaVuSans-64"/>
     <use x="191.988281" xlink:href="#DejaVuSans-69"/>
     <use x="219.771484" xlink:href="#DejaVuSans-75"/>
     <use x="283.150391" xlink:href="#DejaVuSans-73"/>
     <use x="335.25" xlink:href="#DejaVuSans-20"/>
     <use x="367.037109" xlink:href="#DejaVuSans-46"/>
     <use x="415.431641" xlink:href="#DejaVuSans-61"/>
     <use x="476.710938" xlink:href="#DejaVuSans-63"/>
     <use x="531.691406" xlink:href="#DejaVuSans-74"/>
     <use x="570.900391" xlink:href="#DejaVuSans-6f"/>
     <use x="632.082031" xlink:href="#DejaVuSans-72"/>
     <use x="673.195312" xlink:href="#DejaVuSans-20"/>
     <use x="704.982422" xlink:href="#DejaVuSans-6f"/>
     <use x="766.164062" xlink:href="#DejaVuSans-66"/>
     <use x="801.369141" xlink:href="#DejaVuSans-20"/>
     <use x="833.15625" xlink:href="#DejaVuSans-45"/>
     <use x="896.339844" xlink:href="#DejaVuSans-64"/>
     <use x="959.816406" xlink:href="#DejaVuSans-67"/>
     <use x="1023.292969" xlink:href="#DejaVuSans-65"/>
     <use x="1084.816406" xlink:href="#DejaVuSans-20"/>
     <use x="1116.603516" xlink:href="#DejaVuSans-52"/>
     <use x="1181.585938" xlink:href="#DejaVuSans-6f"/>
     <use x="1242.767578" xlink:href="#DejaVuSans-75"/>
     <use x="1306.146484" xlink:href="#DejaVuSans-6e"/>
     <use x="1369.525391" xlink:href="#DejaVuSans-64"/>
     <use x="1433.001953" xlink:href="#DejaVuSans-20"/>
     <use x="1464.789062" xlink:href="#DejaVuSans-6f"/>
     <use x="1525.970703" xlink:href="#DejaVuSans-66"/>
     <use x="1561.175781" xlink:href="#DejaVuSans-20"/>
     <use x="1592.962891" xlink:href="#DejaVuSans-54"/>
     <use x="1637.046875" xlink:href="#DejaVuSans-6f"/>
     <use x="1698.228516" xlink:href="#DejaVuSans-6f"/>
     <use x="1759.410156" xlink:href="#DejaVuSans-74"/>
     <use x="1798.619141" xlink:href="#DejaVuSans-68"/>
     <use x="1861.998047" xlink:href="#DejaVuSans-20"/>
     <use x="1893.785156" xlink:href="#DejaVuSans-65"/>
     <use x="1955.308594" xlink:href="#DejaVuSans-3d"/>
     <use x="2039.097656" xlink:href="#DejaVuSans-30"/>
     <use x="2102.720703" xlink:href="#DejaVuSans-2e"/>
     <use x="2134.507812" xlink:href="#DejaVuSans-32"/>
    </g>
   </g>
   <g id="text_20">
    <!-- Center Position = [20.0, 10.0][mm] -->
    <g style="fill:#008000;" transform="translate(123.263175 2768.184073)scale(0.0694 -0.0694)">
     <defs>
      <path d="M 4122 4306 
L 4122 3641 
Q 3803 3938 3442 4084 
Q 3081 4231 2675 4231 
Q 1875 4231 1450 3742 
Q 1025 3253 1025 2328 
Q 1025 1406 1450 917 
Q 1875 428 2675 428 
Q 3081 428 3442 575 
Q 3803 722 4122 1019 
L 4122 359 
Q 3791 134 3420 21 
Q 3050 -91 2638 -91 
Q 1578 -91 968 557 
Q 359 1206 359 2328 
Q 359 3453 968 4101 
Q 1578 4750 2638 4750 
Q 3056 4750 3426 4639 
Q 3797 4528 4122 4306 
z
" id="DejaVuSans-43" transform="scale(0.015625)"/>
      <path d="M 750 794 
L 1409 794 
L 1409 256 
L 897 -744 
L 494 -744 
L 750 256 
L 750 794 
z
" id="DejaVuSans-2c" transform="scale(0.015625)"/>
     </defs>
     <use xlink:href="#DejaVuSans-43"/>
     <use x="69.824219" xlink:href="#DejaVuSans-65"/>
     <use x="131.347656" xlink:href="#DejaVuSans-6e"/>
     <use x="194.726562" xlink:href="#DejaVuSans-74"/>
     <use x="233.935547" xlink:href="#DejaVuSans-65"/>
     <use x="295.458984" xlink:href="#DejaVuSans-72"/>
     <use x="336.572266" xlink:href="#DejaVuSans-20"/>
     <use x="368.359375" xlink:href="#DejaVuSans-50"/>
     <use x="425.037109" xlink:href="#DejaVuSans-6f"/>
     <use x="486.21875" xlink:href="#DejaVuSans-73"/>
     <use x="538.318359" xlink:href="#DejaVuSans-69"/>
     <use x="566.101562" xlink:href="#DejaVuSans-74"/>
     <use x="605.310547" xlink:href="#DejaVuSans-69"/>
     <use x="633.09375" xlink:href="#DejaVuSans-6f"/>
     <use x="694.275391" xlink:href="#DejaVuSans-6e"/>
     <use x="757.654297" xlink:href="#DejaVuSans-20"/>
     <use x="789.441406" xlink:href="#DejaVuSans-3d"/>
     <use x="873.230469" xlink:href="#DejaVuSans-20"/>
     <use x="905.017578" xlink:href="#DejaVuSans-5b"/>
     <use x="944.03125" xlink:href="#DejaVuSans-32"/>
     <use x="1007.654297" xlink:href="#DejaVuSans-30"/>
     <use x="1071.277344" xlink:href="#DejaVuSans-2e"/>
     <use x="1103.064453" xlink:href="#DejaVuSans-30"/>
     <use x="1166.6875" xlink:href="#DejaVuSans-2c"/>
     <use x="1198.474609" xlink:href="#DejaVuSans-20"/>
     <use x="1230.261719" xlink:href="#DejaVuSans-31"/>
     <use x="1293.884766" xlink:href="#DejaVuSans-30"/>
     <use x="1357.507812" xlink:href="#DejaVuSans-2e"/>
     <use x="1389.294922" xlink:href="#DejaVuSans-30"/>
     <use x="1452.917969" xlink:href="#DejaVuSans-5d"/>
     <use x="1491.931641" xlink:href="#DejaVuSans-5b"/>
     <use x="1530.945312" xlink:href="#DejaVuSans-6d"/>
     <use x="1628.357422" xlink:href="#DejaVuSans-6d"/>
     <use x="1725.769531" xlink:href="#DejaVuSans-5d"/>
    </g>
   </g>
   <g id="text_21">
    <!-- Base Circle Dia = 74.70556335247971[mm] -->
    <g style="fill:#00ffff;" transform="translate(107.330995 2963.278117)scale(0.0694 -0.0694)">
     <defs>
      <path d="M 525 4666 
L 3525 4666 
L 3525 4397 
L 1831 0 
L 1172 0 
L 2766 4134 
L 525 4134 
L 525 4666 
z
" id="DejaVuSans-37" transform="scale(0.015625)"/>
      <path d="M 2113 2584 
Q 1688 2584 1439 2293 
Q 1191 2003 1191 1497 
Q 1191 994 1439 701 
Q 1688 409 2113 409 
Q 2538 409 2786 701 
Q 3034 994 3034 1497 
Q 3034 2003 2786 2293 
Q 2538 2584 2113 2584 
z
M 3366 4563 
L 3366 3988 
Q 3128 4100 2886 4159 
Q 2644 4219 2406 4219 
Q 1781 4219 1451 3797 
Q 1122 3375 1075 2522 
Q 1259 2794 1537 2939 
Q 1816 3084 2150 3084 
Q 2853 3084 3261 2657 
Q 3669 2231 3669 1497 
Q 3669 778 3244 343 
Q 2819 -91 2113 -91 
Q 1303 -91 875 529 
Q 447 1150 447 2328 
Q 447 3434 972 4092 
Q 1497 4750 2381 4750 
Q 2619 4750 2861 4703 
Q 3103 4656 3366 4563 
z
" id="DejaVuSans-36" transform="scale(0.015625)"/>
     </defs>
     <use xlink:href="#DejaVuSans-42"/>
     <use x="68.603516" xlink:href="#DejaVuSans-61"/>
     <use x="129.882812" xlink:href="#DejaVuSans-73"/>
     <use x="181.982422" xlink:href="#DejaVuSans-65"/>
     <use x="243.505859" xlink:href="#DejaVuSans-20"/>
     <use x="275.292969" xlink:href="#DejaVuSans-43"/>
     <use x="345.117188" xlink:href="#DejaVuSans-69"/>
     <use x="372.900391" xlink:href="#DejaVuSans-72"/>
     <use x="411.763672" xlink:href="#DejaVuSans-63"/>
     <use x="466.744141" xlink:href="#DejaVuSans-6c"/>
     <use x="494.527344" xlink:href="#DejaVuSans-65"/>
     <use x="556.050781" xlink:href="#DejaVuSans-20"/>
     <use x="587.837891" xlink:href="#DejaVuSans-44"/>
     <use x="664.839844" xlink:href="#DejaVuSans-69"/>
     <use x="692.623047" xlink:href="#DejaVuSans-61"/>
     <use x="753.902344" xlink:href="#DejaVuSans-20"/>
     <use x="785.689453" xlink:href="#DejaVuSans-3d"/>
     <use x="869.478516" xlink:href="#DejaVuSans-20"/>
     <use x="901.265625" xlink:href="#DejaVuSans-37"/>
     <use x="964.888672" xlink:href="#DejaVuSans-34"/>
     <use x="1028.511719" xlink:href="#DejaVuSans-2e"/>
     <use x="1060.298828" xlink:href="#DejaVuSans-37"/>
     <use x="1123.921875" xlink:href="#DejaVuSans-30"/>
     <use x="1187.544922" xlink:href="#DejaVuSans-35"/>
     <use x="1251.167969" xlink:href="#DejaVuSans-35"/>
     <use x="1314.791016" xlink:href="#DejaVuSans-36"/>
     <use x="1378.414062" xlink:href="#DejaVuSans-33"/>
     <use x="1442.037109" xlink:href="#DejaVuSans-33"/>
     <use x="1505.660156" xlink:href="#DejaVuSans-35"/>
     <use x="1569.283203" xlink:href="#DejaVuSans-32"/>
     <use x="1632.90625" xlink:href="#DejaVuSans-34"/>
     <use x="1696.529297" xlink:href="#DejaVuSans-37"/>
     <use x="1760.152344" xlink:href="#DejaVuSans-39"/>
     <use x="1823.775391" xlink:href="#DejaVuSans-37"/>
     <use x="1887.398438" xlink:href="#DejaVuSans-31"/>
     <use x="1951.021484" xlink:href="#DejaVuSans-5b"/>
     <use x="1990.035156" xlink:href="#DejaVuSans-6d"/>
     <use x="2087.447266" xlink:href="#DejaVuSans-6d"/>
     <use x="2184.859375" xlink:href="#DejaVuSans-5d"/>
    </g>
   </g>
   <g id="text_22">
    <!-- Pitch Circle Dia = 79.5[mm] -->
    <g style="fill:#ff00ff;" transform="translate(136.03657 3158.372162)scale(0.0694 -0.0694)">
     <use xlink:href="#DejaVuSans-50"/>
     <use x="58.052734" xlink:href="#DejaVuSans-69"/>
     <use x="85.835938" xlink:href="#DejaVuSans-74"/>
     <use x="125.044922" xlink:href="#DejaVuSans-63"/>
     <use x="180.025391" xlink:href="#DejaVuSans-68"/>
     <use x="243.404297" xlink:href="#DejaVuSans-20"/>
     <use x="275.191406" xlink:href="#DejaVuSans-43"/>
     <use x="345.015625" xlink:href="#DejaVuSans-69"/>
     <use x="372.798828" xlink:href="#DejaVuSans-72"/>
     <use x="411.662109" xlink:href="#DejaVuSans-63"/>
     <use x="466.642578" xlink:href="#DejaVuSans-6c"/>
     <use x="494.425781" xlink:href="#DejaVuSans-65"/>
     <use x="555.949219" xlink:href="#DejaVuSans-20"/>
     <use x="587.736328" xlink:href="#DejaVuSans-44"/>
     <use x="664.738281" xlink:href="#DejaVuSans-69"/>
     <use x="692.521484" xlink:href="#DejaVuSans-61"/>
     <use x="753.800781" xlink:href="#DejaVuSans-20"/>
     <use x="785.587891" xlink:href="#DejaVuSans-3d"/>
     <use x="869.376953" xlink:href="#DejaVuSans-20"/>
     <use x="901.164062" xlink:href="#DejaVuSans-37"/>
     <use x="964.787109" xlink:href="#DejaVuSans-39"/>
     <use x="1028.410156" xlink:href="#DejaVuSans-2e"/>
     <use x="1060.197266" xlink:href="#DejaVuSans-35"/>
     <use x="1123.820312" xlink:href="#DejaVuSans-5b"/>
     <use x="1162.833984" xlink:href="#DejaVuSans-6d"/>
     <use x="1260.246094" xlink:href="#DejaVuSans-6d"/>
     <use x="1357.658203" xlink:href="#DejaVuSans-5d"/>
    </g>
   </g>
   <g id="text_23">
    <!-- Offset Circle Dia = 80.1[mm] -->
    <g style="fill:#ff0000;" transform="translate(134.004452 3353.466206)scale(0.0694 -0.0694)">
     <use xlink:href="#DejaVuSans-4f"/>
     <use x="78.710938" xlink:href="#DejaVuSans-66"/>
     <use x="113.916016" xlink:href="#DejaVuSans-66"/>
     <use x="149.121094" xlink:href="#DejaVuSans-73"/>
     <use x="201.220703" xlink:href="#DejaVuSans-65"/>
     <use x="262.744141" xlink:href="#DejaVuSans-74"/>
     <use x="301.953125" xlink:href="#DejaVuSans-20"/>
     <use x="333.740234" xlink:href="#DejaVuSans-43"/>
     <use x="403.564453" xlink:href="#DejaVuSans-69"/>
     <use x="431.347656" xlink:href="#DejaVuSans-72"/>
     <use x="470.210938" xlink:href="#DejaVuSans-63"/>
     <use x="525.191406" xlink:href="#DejaVuSans-6c"/>
     <use x="552.974609" xlink:href="#DejaVuSans-65"/>
     <use x="614.498047" xlink:href="#DejaVuSans-20"/>
     <use x="646.285156" xlink:href="#DejaVuSans-44"/>
     <use x="723.287109" xlink:href="#DejaVuSans-69"/>
     <use x="751.070312" xlink:href="#DejaVuSans-61"/>
     <use x="812.349609" xlink:href="#DejaVuSans-20"/>
     <use x="844.136719" xlink:href="#DejaVuSans-3d"/>
     <use x="927.925781" xlink:href="#DejaVuSans-20"/>
     <use x="959.712891" xlink:href="#DejaVuSans-38"/>
     <use x="1023.335938" xlink:href="#DejaVuSans-30"/>
     <use x="1086.958984" xlink:href="#DejaVuSans-2e"/>
     <use x="1118.746094" xlink:href="#DejaVuSans-31"/>
     <use x="1182.369141" xlink:href="#DejaVuSans-5b"/>
     <use x="1221.382812" xlink:href="#DejaVuSans-6d"/>
     <use x="1318.794922" xlink:href="#DejaVuSans-6d"/>
     <use x="1416.207031" xlink:href="#DejaVuSans-5d"/>
    </g>
   </g>
   <g id="text_24">
    <!-- Outer Circle Dia = 83.1[mm] -->
    <g style="fill:#a52a2a;" transform="translate(134.629594 3548.560251)scale(0.0694 -0.0694)">
     <use xlink:href="#DejaVuSans-4f"/>
     <use x="78.710938" xlink:href="#DejaVuSans-75"/>
     <use x="142.089844" xlink:href="#DejaVuSans-74"/>
     <use x="181.298828" xlink:href="#DejaVuSans-65"/>
     <use x="242.822266" xlink:href="#DejaVuSans-72"/>
     <use x="283.935547" xlink:href="#DejaVuSans-20"/>
     <use x="315.722656" xlink:href="#DejaVuSans-43"/>
     <use x="385.546875" xlink:href="#DejaVuSans-69"/>
     <use x="413.330078" xlink:href="#DejaVuSans-72"/>
     <use x="452.193359" xlink:href="#DejaVuSans-63"/>
     <use x="507.173828" xlink:href="#DejaVuSans-6c"/>
     <use x="534.957031" xlink:href="#DejaVuSans-65"/>
     <use x="596.480469" xlink:href="#DejaVuSans-20"/>
     <use x="628.267578" xlink:href="#DejaVuSans-44"/>
     <use x="705.269531" xlink:href="#DejaVuSans-69"/>
     <use x="733.052734" xlink:href="#DejaVuSans-61"/>
     <use x="794.332031" xlink:href="#DejaVuSans-20"/>
     <use x="826.119141" xlink:href="#DejaVuSans-3d"/>
     <use x="909.908203" xlink:href="#DejaVuSans-20"/>
     <use x="941.695312" xlink:href="#DejaVuSans-38"/>
     <use x="1005.318359" xlink:href="#DejaVuSans-33"/>
     <use x="1068.941406" xlink:href="#DejaVuSans-2e"/>
     <use x="1100.728516" xlink:href="#DejaVuSans-31"/>
     <use x="1164.351562" xlink:href="#DejaVuSans-5b"/>
     <use x="1203.365234" xlink:href="#DejaVuSans-6d"/>
     <use x="1300.777344" xlink:href="#DejaVuSans-6d"/>
     <use x="1398.189453" xlink:href="#DejaVuSans-5d"/>
    </g>
   </g>
   <g id="text_25">
    <!-- Root Circle Dia = 76.35[mm] -->
    <g style="fill:#808080;" transform="translate(134.412719 3743.654295)scale(0.0694 -0.0694)">
     <use xlink:href="#DejaVuSans-52"/>
     <use x="64.982422" xlink:href="#DejaVuSans-6f"/>
     <use x="126.164062" xlink:href="#DejaVuSans-6f"/>
     <use x="187.345703" xlink:href="#DejaVuSans-74"/>
     <use x="226.554688" xlink:href="#DejaVuSans-20"/>
     <use x="258.341797" xlink:href="#DejaVuSans-43"/>
     <use x="328.166016" xlink:href="#DejaVuSans-69"/>
     <use x="355.949219" xlink:href="#DejaVuSans-72"/>
     <use x="394.8125" xlink:href="#DejaVuSans-63"/>
     <use x="449.792969" xlink:href="#DejaVuSans-6c"/>
     <use x="477.576172" xlink:href="#DejaVuSans-65"/>
     <use x="539.099609" xlink:href="#DejaVuSans-20"/>
     <use x="570.886719" xlink:href="#DejaVuSans-44"/>
     <use x="647.888672" xlink:href="#DejaVuSans-69"/>
     <use x="675.671875" xlink:href="#DejaVuSans-61"/>
     <use x="736.951172" xlink:href="#DejaVuSans-20"/>
     <use x="768.738281" xlink:href="#DejaVuSans-3d"/>
     <use x="852.527344" xlink:href="#DejaVuSans-20"/>
     <use x="884.314453" xlink:href="#DejaVuSans-37"/>
     <use x="947.9375" xlink:href="#DejaVuSans-36"/>
     <use x="1011.560547" xlink:href="#DejaVuSans-2e"/>
     <use x="1043.347656" xlink:href="#DejaVuSans-33"/>
     <use x="1106.970703" xlink:href="#DejaVuSans-35"/>
     <use x="1170.59375" xlink:href="#DejaVuSans-5b"/>
     <use x="1209.607422" xlink:href="#DejaVuSans-6d"/>
     <use x="1307.019531" xlink:href="#DejaVuSans-6d"/>
     <use x="1404.431641" xlink:href="#DejaVuSans-5d"/>
    </g>
   </g>
   <g id="text_26">
    <!-- Fine Gear Profile Generator 2 -->
    <g transform="translate(97.27125 37.2)scale(0.12 -0.12)">
     <defs>
      <path d="M 3809 666 
L 3809 1919 
L 2778 1919 
L 2778 2438 
L 4434 2438 
L 4434 434 
Q 4069 175 3628 42 
Q 3188 -91 2688 -91 
Q 1594 -91 976 548 
Q 359 1188 359 2328 
Q 359 3472 976 4111 
Q 1594 4750 2688 4750 
Q 3144 4750 3555 4637 
Q 3966 4525 4313 4306 
L 4313 3634 
Q 3963 3931 3569 4081 
Q 3175 4231 2741 4231 
Q 1884 4231 1454 3753 
Q 1025 3275 1025 2328 
Q 1025 1384 1454 906 
Q 1884 428 2741 428 
Q 3075 428 3337 486 
Q 3600 544 3809 666 
z
" id="DejaVuSans-47" transform="scale(0.015625)"/>
     </defs>
     <use xlink:href="#DejaVuSans-46"/>
     <use x="50.269531" xlink:href="#DejaVuSans-69"/>
     <use x="78.052734" xlink:href="#DejaVuSans-6e"/>
     <use x="141.431641" xlink:href="#DejaVuSans-65"/>
     <use x="202.955078" xlink:href="#DejaVuSans-20"/>
     <use x="234.742188" xlink:href="#DejaVuSans-47"/>
     <use x="312.232422" xlink:href="#DejaVuSans-65"/>
     <use x="373.755859" xlink:href="#DejaVuSans-61"/>
     <use x="435.035156" xlink:href="#DejaVuSans-72"/>
     <use x="476.148438" xlink:href="#DejaVuSans-20"/>
     <use x="507.935547" xlink:href="#DejaVuSans-50"/>
     <use x="566.488281" xlink:href="#DejaVuSans-72"/>
     <use x="605.351562" xlink:href="#DejaVuSans-6f"/>
     <use x="666.533203" xlink:href="#DejaVuSans-66"/>
     <use x="701.738281" xlink:href="#DejaVuSans-69"/>
     <use x="729.521484" xlink:href="#DejaVuSans-6c"/>
     <use x="757.304688" xlink:href="#DejaVuSans-65"/>
     <use x="818.828125" xlink:href="#DejaVuSans-20"/>
     <use x="850.615234" xlink:href="#DejaVuSans-47"/>
     <use x="928.105469" xlink:href="#DejaVuSans-65"/>
     <use x="989.628906" xlink:href="#DejaVuSans-6e"/>
     <use x="1053.007812" xlink:href="#DejaVuSans-65"/>
     <use x="1114.53125" xlink:href="#DejaVuSans-72"/>
     <use x="1155.644531" xlink:href="#DejaVuSans-61"/>
     <use x="1216.923828" xlink:href="#DejaVuSans-74"/>
     <use x="1256.132812" xlink:href="#DejaVuSans-6f"/>
     <use x="1317.314453" xlink:href="#DejaVuSans-72"/>
     <use x="1358.427734" xlink:href="#DejaVuSans-20"/>
     <use x="1390.214844" xlink:href="#DejaVuSans-32"/>
    </g>
   </g>
  </g>
 </g>
 <defs>
  <clipPath id="pee79bc5a3f">
   <rect height="277.2" width="277.2" x="45.9" y="43.2"/>
  </clipPath>
 </defs>
</svg>
